<?xml version="1.0" encoding="UTF-8"?>
<svg id="Layer_1" xmlns="http://www.w3.org/2000/svg" version="1.1" viewBox="0 0 230 59.2">
  <!-- Generator: Adobe Illustrator 29.6.1, SVG Export Plug-In . SVG Version: 2.1.1 Build 9)  -->
  <defs>
    <style>
      .st0 {
        fill: #0e8388;
      }

      .st1 {
        fill: #d65745;
      }
    </style>
  </defs>
  <g>
    <g>
      <path class="st1" d="M72,18.2h4v7.9h0c.4-.7.8-1.3,1.2-2l4.1-5.9h5l-5.9,7.6,6.2,10.3h-4.7l-4.4-7.7-1.5,1.9v5.8h-4v-17.9Z"/>
      <path class="st1" d="M90.9,30.9c.1,1.7,1.8,2.5,3.7,2.5s2.5-.2,3.6-.5l.5,2.7c-1.3.5-2.9.8-4.7.8-4.4,0-6.9-2.5-6.9-6.6s2-6.9,6.6-6.9,5.8,3.3,5.8,6.5,0,1.3-.1,1.6h-8.4ZM95.6,28.1c0-1-.4-2.6-2.3-2.6s-2.4,1.5-2.5,2.6h4.8Z"/>
      <path class="st1" d="M104.6,23.1l1.9,6.4c.2.8.5,1.7.6,2.4h0c.2-.7.4-1.7.6-2.4l1.6-6.4h4.3l-3,8.5c-1.9,5.1-3.1,7.2-4.6,8.5-1.4,1.2-2.9,1.6-3.9,1.8l-.8-3.4c.5,0,1.1-.3,1.8-.7.6-.3,1.3-1,1.7-1.6.1-.2.2-.4.2-.6s0-.3-.2-.7l-4.7-11.9h4.5Z"/>
    </g>
    <g>
      <path class="st0" d="M115.9,18.4c1.1-.2,2.6-.3,4.4-.3s4,.5,5,1.5c1,.8,1.6,2.1,1.6,3.7s-.5,2.9-1.4,3.8c-1.2,1.3-3.2,2-5.5,2s-1.3,0-1.9-.2v7.2h-2.3v-17.7ZM118.2,27c.5.1,1.1.2,1.9.2,2.8,0,4.5-1.4,4.5-3.8s-1.7-3.5-4.2-3.5-1.8,0-2.2.2v7Z"/>
      <path class="st0" d="M129.8,17.2h2.3v18.8h-2.3v-18.8Z"/>
      <path class="st0" d="M143.1,36.1l-.2-1.6h0c-.7,1-2.1,1.9-3.9,1.9-2.6,0-3.9-1.8-3.9-3.7,0-3.1,2.8-4.8,7.7-4.8v-.3c0-1.1-.3-3-2.9-3s-2.4.4-3.3,1l-.5-1.5c1.1-.7,2.6-1.1,4.2-1.1,3.9,0,4.9,2.7,4.9,5.3v4.8c0,1.1,0,2.2.2,3.1h-2.1ZM142.8,29.5c-2.5,0-5.4.4-5.4,2.9s1,2.2,2.2,2.2,2.7-1.1,3.1-2.1c0-.2.1-.5.1-.7v-2.2Z"/>
      <path class="st0" d="M158,35.6c-.6.3-2,.7-3.7.7-3.9,0-6.4-2.6-6.4-6.6s2.7-6.8,6.9-6.8,2.6.3,3.2.7l-.5,1.8c-.6-.3-1.4-.6-2.7-.6-2.9,0-4.5,2.2-4.5,4.9s1.9,4.8,4.5,4.8,2.2-.3,2.9-.6l.4,1.8Z"/>
      <path class="st0" d="M161.8,30.1c0,3.2,2.1,4.5,4.4,4.5s2.7-.3,3.6-.7l.4,1.7c-.8.4-2.2.8-4.3.8-4,0-6.3-2.6-6.3-6.5s2.3-6.9,6-6.9,5.3,3.7,5.3,6,0,.8,0,1.1h-9ZM168.7,28.4c0-1.5-.6-3.8-3.2-3.8s-3.4,2.2-3.6,3.8h6.8Z"/>
      <path class="st0" d="M173.8,26.7c0-1.3,0-2.4-.1-3.5h2v2.1h.2c.7-1.2,1.9-2.4,4-2.4s3.1,1.1,3.6,2.6h0c.4-.7.9-1.3,1.4-1.7.8-.6,1.6-.9,2.8-.9s4.2,1.1,4.2,5.6v7.6h-2.3v-7.3c0-2.5-.9-4-2.8-4s-2.4,1-2.8,2.1c-.1.3-.2.7-.2,1.2v7.9h-2.3v-7.7c0-2-.9-3.5-2.7-3.5s-2.5,1.2-2.9,2.3c-.1.3-.2.7-.2,1.1v7.7h-2.3v-9.4Z"/>
      <path class="st0" d="M197.3,30.1c0,3.2,2.1,4.5,4.4,4.5s2.7-.3,3.6-.7l.4,1.7c-.8.4-2.2.8-4.3.8-4,0-6.3-2.6-6.3-6.5s2.3-6.9,6-6.9,5.3,3.7,5.3,6,0,.8,0,1.1h-9ZM204.1,28.4c0-1.5-.6-3.8-3.2-3.8s-3.4,2.2-3.6,3.8h6.8Z"/>
      <path class="st0" d="M209.2,26.7c0-1.3,0-2.4-.1-3.5h2.1v2.1h.2c.6-1.2,2.1-2.4,4.2-2.4s4.5,1.1,4.5,5.5v7.7h-2.3v-7.4c0-2.1-.8-3.8-3-3.8s-2.7,1.1-3.1,2.4c-.1.3-.2.7-.2,1.1v7.7h-2.3v-9.4Z"/>
      <path class="st0" d="M226.7,19.5v3.7h3.3v1.8h-3.3v6.9c0,1.6.5,2.5,1.8,2.5s1.1,0,1.4-.2v1.8c-.3.2-1.1.3-2,.3s-2-.3-2.5-1c-.7-.7-.9-1.8-.9-3.3v-7h-2v-1.8h2v-3.1l2.3-.6Z"/>
    </g>
  </g>
  <g>
    <path class="st0" d="M13.2,27.5s14.4-9.1,16-11.5c1.7-2.4,7.2-7.5,9.4-8,2.2-.5,6.6-.2,7.9.8,1.4,1,8.5,2.1,9.4,2.1,1,0,3.5,1.6,3.5,2.9,0,1.3,1.3,2.4,2.1,3.2.8.8,2.1,1.4,1.9,2.7-.2,1.4,0,3.6-.4,4.2-.3.6.7,4.3-.9,4.8-1.6.5-2.7-1.1-2.7-1.1,0,0-1.4-3.4-1.4-3.8,0-.4,1.5,2.9,2.4,3.3.9.4,1.4.7,1.5-.5,0-1.1,0-3.1,0-3.8,0-.7.7-3.1.5-3.4-.2-.3-2.1-2-2.4-2.4-.3-.5-2.1-3.3-2.1-3.3,0,0-2.2-2.1-3.3-2.3-1.1-.2-8.6-1.1-8.9-1.5-.3-.5-5.3-1.7-7.1-.9-1.8.7-5.2,3.9-5.7,4.5-.5.7-7.1,7.5-20,13.9"/>
    <path class="st0" d="M16.3,48.7s9.2.7,12.1-.5c2.8-1.2,13.4-5.9,13.8-6.1.5-.3,3-2,5.6-1.4,2.6.6,5.1,1.1,5.4,1,.4,0,7.5-2.8,7.4-4.4-.1-1.6-.9-4.1-.9-4.1,0,0,1.4.4,1.5,1.5.2,1.1.3,3.9-.7,4.7-1,.7-5.5,3.4-8.2,3.2-2.7-.2-5.2-.9-6.7-.6-1.5.3-16.3,7.1-17.8,7.4-1.6.3-9.4,1.6-11.5-.7"/>
    <path class="st0" d="M38,13.4l1.9,9.4s-1.9.6-2.7-.5c-.7-1.1-1.7-1.7-1.7-1.7,0,0,1,2.6,1.7,2.8.7.1,5.1.1,6-.1.9-.2,6.1-1.2,7.5-1.1,1.4.2,4.5-.5,5.4.5.9.9,1.1,1.9.9,2.8-.2.9-.4,2.6-2.1,3.3-1.7.7-3.8,1.4-5,1.8-1.3.4-4.6.5-5.7.5-1.1,0-3.6,0-7.5,3.8-3.9,3.9-14.8,9.2-14.8,9.2l8.5-3.8s6.7-3.8,7-4.2c.3-.4,2.6-3.1,3.3-3.5.7-.3,3.6-.9,5.5-.4,1.9.5,9.1-2,10.2-2.8,1.1-.7,2.4-3.6,2-4.4-.4-.8-.4-2.8-1.7-3.1-1.2-.3-3.2-.4-4.3-.7-1.1-.3-6.1.1-7.3.5-1.2.4-4,.8-4,.8l-3.1-8.9Z"/>
    <path class="st0" d="M43.7,11.4s.4,4.7,2.4,6c2,1.3,3.5,1.4,3.5,1.4v2.3c0,0,.9.2.9.2l-.3-2.8s4.3,1.5,5.1,1.8c.9.4-3.7-2.6-5.2-2.8-1.5-.2-4.4-.2-6.4-6.2"/>
    <path class="st0" d="M46.7,31.3s-3.8,1.6-4.2,2.1c-.5.5-1.4,2.6,0,3.6,1.4,1,2.2,1.9,3.4,1.7,1.2-.2,5.7-1,6.3-1.2.6-.2,2.7-.6,3.3-.9s3.3-2.5,4.2-3.3c.9-.9,3.3-3.8,3.3-4.7s-1,0-1,0c0,0-.5,1.3-.6,1.6,0,.4-2.1,2.4-3.3,3.5-1.2,1-3,1.7-3.6,2.3-.7.6-4.4,1.2-5.1,1.3-.7,0-3.4.7-4.3.1-.9-.6-1.8-.9-1.8-1.6s-.5-2.6,5.8-4.3c6.3-1.8-2.4,0-2.4,0"/>
    <path class="st0" d="M44.7,32.7s3.4,2.1,2.3,4.1c0,0-1.3-4-2.9-3.7-1.6.4.6-.9.6-.9v.5Z"/>
    <path class="st0" d="M52.9,22s-5.3,4.2.8,7.5c0,0-4.4-4,0-7.4h-.7Z"/>
    <path class="st0" d="M46.9,37.9s-3.2,1.9-.7,3.1c2.6,1.2,1.5.3,1.5.3,0,0-3.4-1-.8-3.4"/>
    <path class="st0" d="M0,29.6c.6,0,14.7-4.2,14.7-4.2,0,0-9.7,11.6,6.6,29.4,0,0-7.2,2.2-12.3,2.9,0,0,9.9-3.1,10-3.6.2-.5-14-15-7.1-26.4l-11.9,1.9Z"/>
    <path class="st0" d="M59.3,56c-1.1.2-2.2-.5-2.4-1.6-.2-1.1.5-2.2,1.6-2.4,1.1-.2,2.2.5,2.4,1.6.2,1.1-.5,2.2-1.6,2.4M66.6,49.2c-.7-3.5-3.7-6-7.1-6.4v-22.8c0,0,5.8-.4,5.8-.4l.3-1.7-3.4-.5-.2-.7h1.9v-.7h-1.4c0,0,.1-1.4.1-1.4l1.9.4v-1.2s-2,0-2,0v-2.7s3.3.5,3.3.5v-1.2h-3.5c0-.1-.3-2.2-.3-2.2l3,.2v-1s-2.9-.1-2.9-.1l.4-.7h3.4c0,0,.2-1.4.2-1.4l-6.5-.5V1.8s0-1.8-2.1-1.8c0,0-1.7,0-1.9,1.8v19.8s2.6,1.7,2.5,3.6c-.2,2.8-1.8,4-1.8,4l-.2,14c-4,1.2-6.5,5.4-5.7,9.5.9,4.4,5.3,7.3,9.8,6.3,4.5-.9,7.3-5.3,6.4-9.7"/>
  </g>
</svg>